<svg width="188" height="193" viewBox="0 0 188 193" fill="none" xmlns="http://www.w3.org/2000/svg">
<path d="M13.2456 10.2559C4.28472 30.1078 -0.540389 53.1305 1.25179 78.0832C6.0769 144.532 53.2251 196.367 105.061 192.645C134.425 190.439 159.378 171.277 174.818 142.878C178.264 136.398 176.886 132.676 171.371 138.466C103.268 210.429 18.0707 135.019 15.0378 49.9597C14.0728 36.3115 14.6242 22.9391 16.5543 10.2559C17.5193 4.60366 15.0378 6.25799 13.2456 10.2559ZM81.4865 144.118C73.9042 140.534 72.8013 135.571 84.2437 135.571C149.727 135.985 177.713 61.9535 176.61 5.29298C176.472 0.467866 178.54 -1.32433 180.608 5.01724C183.917 15.2189 185.985 26.2477 186.95 37.6901C191.223 96.8322 158.688 147.703 114.573 150.873C103.131 151.701 91.9639 149.081 81.4865 144.118Z" fill="white"/>
<path d="M120.5 51.2005C123.947 53.5441 127.393 55.612 131.529 55.3363C131.943 55.3363 132.77 55.4742 133.184 56.1635C133.321 56.577 133.735 57.2663 132.908 58.2314C129.599 61.6779 124.361 64.2972 118.708 65.2622C120.5 68.9845 122.43 72.5688 126.153 74.361C126.566 74.6367 127.256 75.0503 127.256 75.8775C127.256 76.291 127.256 77.1182 126.015 77.5318C121.328 78.9104 115.537 78.359 110.161 76.4289C109.747 80.5647 109.747 84.5627 112.091 88.0092C112.367 88.4228 112.642 89.2499 112.367 89.9392C112.091 90.3528 111.677 91.0421 110.437 90.7664C105.749 89.5257 100.924 86.3549 97.202 81.9433C94.7205 85.3899 92.7905 88.6985 93.0662 92.8343C93.0662 93.2479 93.0662 94.075 92.3769 94.4886C91.9633 94.6265 91.1362 95.0401 90.1712 94.2129C86.7247 90.9043 84.2432 85.6655 83.1403 80.0133C79.2802 81.8055 75.8337 83.7355 74.0415 87.3199C73.7658 87.7335 73.3522 88.4228 72.525 88.4228C72.1115 88.4228 71.2843 88.2849 70.8707 87.182C69.63 82.4948 70.0436 76.7046 71.9736 71.3281C67.8378 71.0524 63.8398 70.9145 60.3933 73.2581C59.9798 73.5338 59.1526 73.9474 58.4633 73.5339C58.1876 73.2581 57.3604 72.8446 57.6361 71.6038C58.8769 66.9166 62.0477 62.0915 66.597 58.3692C63.1505 55.8877 59.704 53.9577 55.5682 54.2334C55.0168 54.2334 54.3275 54.2334 53.9139 53.5441C53.6382 53.1305 53.3625 52.3034 54.1896 51.3383C57.4983 47.8918 62.737 45.4104 68.3892 44.4453C66.5971 40.5852 64.667 37.1387 60.9448 35.3465C60.5312 35.0708 59.8419 34.6572 59.8419 33.8301C59.8419 33.4165 59.9798 32.5894 61.0826 32.1758C65.7699 30.7972 71.56 31.3486 76.9366 33.2786C77.3501 29.1428 77.3502 25.1449 75.0065 21.6984C74.7308 21.2848 74.4551 20.5955 74.7308 19.9062C75.0065 19.4926 75.4201 18.8033 76.6609 19.0791C81.3481 20.3198 86.1732 23.6284 89.8954 27.9021C92.3769 24.4556 94.307 21.0091 94.0312 16.8733C93.8934 16.3218 94.0312 15.6325 94.7205 15.219C95.1341 14.9432 95.9613 14.6675 96.9263 15.4947C100.373 18.8033 102.854 24.042 103.957 29.6943C107.817 27.9021 111.264 25.972 113.056 22.2498C113.332 21.8362 113.745 21.147 114.572 21.147C114.986 21.147 115.813 21.1469 116.227 22.3877C117.605 27.0749 117.054 32.8651 115.124 38.2416C119.398 38.6552 123.258 38.6552 126.704 36.3116C127.118 36.0359 127.945 35.7601 128.496 36.1737C128.772 36.4494 129.599 36.863 129.323 38.1038C128.221 42.6531 124.912 47.4783 120.5 51.2005Z" fill="#FABF29"/>
</svg>
